<svg id="Camada_1" data-name="Camada 1" xmlns="http://www.w3.org/2000/svg" viewBox="0 0 815.72 257.23"><defs><style>.cls-1{fill:#2e86ab;}.cls-2{fill:#5dd9c1;}</style></defs><g id="Camada_1-2" data-name="Camada 1"><path class="cls-1" d="M156.94,78.51V70.16L40.42,98v7.17l86.13,27.59v-8.31l-70.23-21.9-3.65-1.14,3.73-.82L156.94,78.51Z"/><polygon class="cls-1" points="198.05 59.07 141.26 147.43 138.97 151 131.22 151 134.83 145.38 190.29 59.07 198.05 59.07"/><path class="cls-1" d="M205.39,70.27v8.31l70.23,22,3.08,1-3.08,1L166.43,136.77v8.32l125.09-39.93V97.93L205.39,70.26Z"/><path class="cls-1" d="M251.35,124.46v46.61l-.7.22-80,25.66-1.32.42V150.75L165.6,152l-.31.09L165,152l-3.73-1.2v46.62L160,197,80,171.29l-.71-.22V124.46l-8.07-2.59V177l89.39,28.67,4.73,1.52,4.74-1.52L259.41,177V121.87l-8.07,2.59Z"/><path class="cls-2" d="M364.89,59.71l21.54,54.7,21.63-54.7h10.72v62.52h-7.15V68.82l-21.35,53.41h-7.79L361.23,68.82v53.41h-7.15V59.71Z"/><path class="cls-2" d="M430.78,91.16c0-17.93,13.2-32.09,30.88-32.09s30.7,14.16,30.7,32.09-13.2,32.18-30.7,32.18-30.88-14.16-30.88-32.18Zm53.88,0c0-14.25-9.81-25.47-23-25.47s-23.19,11.22-23.19,25.47,9.71,25.56,23.19,25.56,23-11.4,23-25.56Z"/><path class="cls-2" d="M511.51,59.71V98.14c0,11.22,4.67,18.3,17.14,18.3s17-7.08,17-18.3V59.71h7.33V98.05c0,13.79-5.5,24.82-24.29,24.82s-24.29-11-24.29-24.82V59.71h7.16Z"/><path class="cls-2" d="M563.47,66.06V59.72h55.9v6.34H595.08v56.17h-7.33V66.06H563.47Z"/><path class="cls-2" d="M627.35,118.37v-7.45A53.21,53.21,0,0,0,649,116.16c9.81,0,15.76-3.4,15.76-9.38,0-14.62-36.84-10.11-36.84-31.35,0-9.65,7.61-16.36,22.91-16.36,9.81,0,16.31,3,19.25,5.24V71a36.07,36.07,0,0,0-18.7-5.33c-10.81,0-16,4.5-16,10,0,14.53,37,9.93,37,30.71,0,6.9-3.94,16.46-23.28,16.46a58.14,58.14,0,0,1-21.81-4.5Z"/><path class="cls-2" d="M386.69,143.93h-9.07l-23.55,62.52h7.23l5.59-15,2.29-6.16,13-34.84,13,34.84,2.29,6.16,5.59,15h7.15l-23.55-62.52Z"/><path class="cls-2" d="M414.64,175.19c0-17.56,11.36-31.9,30.06-31.9,13,0,21.9,6.62,26.58,15.72l-6.23,4c-4.12-7.72-11.27-13.05-20.35-13.05-13.75,0-22.36,11.22-22.36,25.28s8.61,25.28,22.36,25.28a22.45,22.45,0,0,0,20.16-12.41l6.32,4.05c-4.86,9.1-13.66,15-26.49,15-18.51,0-30.06-14.53-30.06-31.9Z"/><path class="cls-2" d="M509.31,143.93h-9.07l-23.56,62.52h7.24l5.59-15,2.29-6.16,13-34.84,13,34.84,2.29,6.16,5.59,15h7.15L509.3,143.93Z"/><path class="cls-2" d="M542.57,206.45V143.93h22.54c18,0,30,12.69,30,31.17s-12,31.35-30,31.35Zm7.24-55.9v49.28h15.3c13,0,22.36-10,22.36-24.73s-9.35-24.55-22.36-24.55Z"/><path class="cls-2" d="M649.61,143.93v6.34H614.24v22.16h29.88v6.44H614.24v21.24h35.37v6.34H607.09V143.93Z"/><path class="cls-2" d="M673.62,143.93l21.54,54.7,21.63-54.7h10.72v62.52h-7.15V153L699,206.45h-7.79L670,153v53.41h-7.15V143.93Z"/><path class="cls-2" d="M737.67,143.93h8.25L765.26,176l19.25-32.09h8.16l-23.83,38.89v23.63H761.6V182.91l-23.92-39Z"/></g></svg>